<svg version="1.1" id="Layer_1" xmlns="http://www.w3.org/2000/svg" xmlns:xlink="http://www.w3.org/1999/xlink" x="0px" y="0px"
	 width="100%" viewBox="0 0 832 864" enable-background="new 0 0 832 864" xml:space="preserve">
<path fill="#000000" opacity="1.000000" stroke="none" 
	d="
M380.741089,693.982544 
	C380.566010,688.342163 380.932770,683.203979 380.026794,678.045532 
	C379.351776,674.202209 377.310883,672.945984 373.855713,673.152649 
	C365.319580,673.663025 359.914764,678.683655 355.985260,685.747559 
	C354.939087,687.628235 354.069092,689.610229 352.970795,691.458130 
	C349.739441,696.894836 348.269501,702.324951 351.663208,708.370605 
	C355.068420,714.436829 352.421112,720.745789 351.781616,726.933105 
	C350.171936,742.507019 348.678253,758.134583 351.435760,773.666748 
	C354.026703,788.260620 361.763397,800.169067 373.161285,809.477966 
	C379.691132,814.811096 387.383057,817.996460 395.948486,818.638000 
	C398.264709,818.811523 400.932159,818.684875 401.868896,821.331116 
	C402.688843,823.647583 400.749359,825.188232 399.511749,826.986206 
	C395.832764,832.331299 390.543243,833.585327 384.956482,832.040588 
	C373.077332,828.755981 361.576447,824.494873 353.332733,814.485535 
	C348.132660,808.171753 345.283386,800.659973 343.089630,793.027100 
	C338.894470,778.430786 337.120056,763.499695 337.541687,748.220825 
	C337.827789,737.853699 339.179321,727.696716 341.154816,717.594482 
	C341.875488,713.909180 341.535400,710.663025 339.604309,707.564331 
	C333.235260,697.344666 334.567841,687.189270 340.299286,677.386719 
	C341.609283,675.146362 342.900452,672.811890 344.188904,670.559326 
	C350.837067,658.936951 361.481628,659.948303 372.288361,661.171631 
	C374.105194,661.377319 375.915894,661.642456 377.735565,661.816101 
	C381.406311,662.166260 383.685516,661.131470 385.325470,657.190430 
	C387.813416,651.211548 392.474640,647.153564 399.041809,645.154358 
	C405.706085,643.125549 412.218964,640.507629 417.253052,635.231873 
	C419.436493,632.943604 420.879730,630.567993 420.752197,627.299622 
	C420.548035,622.067810 421.820374,617.621094 426.608337,614.436035 
	C431.406403,611.244324 432.055786,606.330872 430.548645,601.100525 
	C428.372223,593.547485 425.468872,586.346313 419.820007,580.591187 
	C417.807220,578.540588 415.591492,575.941101 412.596802,577.711609 
	C409.571045,579.500427 411.398041,582.600769 412.365051,584.881287 
	C417.974945,598.110535 413.992249,609.727356 406.108398,620.364258 
	C398.460358,630.682922 385.170807,633.206360 373.888702,627.049011 
	C368.221313,623.955933 362.477234,620.843872 360.137054,614.162109 
	C359.583954,612.582825 358.823883,610.812805 360.331909,609.498901 
	C362.157898,607.908020 363.823517,609.399353 365.251617,610.431030 
	C366.854767,611.589233 368.162811,613.149658 369.736755,614.355652 
	C381.476318,623.350464 388.455841,620.676880 395.844635,609.800110 
	C397.502655,607.359375 398.589691,604.502502 399.746704,601.755981 
	C401.608459,597.336548 400.396759,595.477112 395.651947,594.367859 
	C389.240387,592.868958 382.693909,593.838074 376.258392,593.019226 
	C373.162781,592.625305 369.924652,592.521973 367.662964,589.103943 
	C371.409912,584.562561 376.779816,582.990417 381.976257,581.919922 
	C387.524414,580.776917 392.268280,578.186951 397.126465,575.679810 
	C399.575958,574.415649 401.333832,572.191528 402.247406,569.700500 
	C407.903992,554.276917 413.694000,538.890747 418.826904,523.290588 
	C422.242462,512.909973 421.707245,502.096405 421.209961,491.204285 
	C420.779541,481.777649 418.085785,473.308594 414.690033,464.800201 
	C410.940735,455.406036 400.298676,449.891327 392.262268,453.737366 
	C387.073700,456.220520 383.312286,460.709290 379.897766,465.190369 
	C365.428162,484.179840 361.977112,506.061249 363.197754,529.251770 
	C363.599548,536.885071 364.401855,544.476135 364.762909,552.098694 
	C364.858429,554.115051 365.024750,556.801636 362.665009,557.808411 
	C360.667389,558.660706 359.410370,556.785889 358.156921,555.450195 
	C356.887390,554.097412 356.417206,551.347046 353.783569,552.183044 
	C351.225555,552.995117 350.663269,555.546509 350.245544,557.821899 
	C348.669495,566.407410 349.095947,575.061096 349.661865,583.703186 
	C350.226379,592.324402 351.156647,600.890747 353.148804,609.332031 
	C353.682373,611.592834 353.160370,613.946838 350.949036,615.900818 
	C347.089203,613.952148 344.828857,610.537598 342.764740,606.986755 
	C333.927887,591.785400 325.174194,576.535522 316.294006,561.359619 
	C313.859894,557.199829 311.138763,553.197144 307.489990,549.946899 
	C306.488586,549.054810 305.431580,548.079407 303.952362,548.638184 
	C302.456665,549.203125 302.430328,550.618652 302.249420,551.964905 
	C301.845642,554.969788 302.894287,557.622009 304.451904,559.989929 
	C310.628937,569.380676 316.946625,578.678894 323.193298,588.023926 
	C325.684418,591.750610 328.234039,595.445068 330.551056,599.278687 
	C331.960205,601.610168 331.691620,603.836731 329.762726,606.109863 
	C325.280365,611.392273 319.339783,612.880310 312.858795,613.399841 
	C299.564728,614.465698 288.695007,609.086182 278.642914,601.049744 
	C262.016144,587.756958 253.205353,570.004700 248.802094,549.673279 
	C248.312866,547.414307 247.927292,545.018555 248.136520,542.745422 
	C248.641327,537.260986 246.283859,534.458313 240.990875,533.292847 
	C226.918030,530.194275 213.580597,525.111389 201.802155,516.695984 
	C191.333786,509.216553 182.251266,500.453430 175.979111,488.824432 
	C171.933487,481.323578 167.967911,473.733429 165.456497,465.735931 
	C160.919449,451.287842 158.373047,436.361816 159.700119,421.052612 
	C159.852356,419.296539 160.437347,417.802856 162.521805,417.139587 
	C164.940918,418.258881 164.874481,420.666290 165.355392,422.891022 
	C167.603806,433.292084 170.108902,443.559753 176.359207,452.539856 
	C183.985092,463.496216 194.572815,469.062622 207.532196,470.810211 
	C223.207504,472.924103 238.212997,470.776031 251.513611,462.080933 
	C263.002686,454.570099 271.324219,443.911743 276.581696,431.175537 
	C279.743866,423.515259 281.622742,415.501251 282.920868,407.213837 
	C284.970062,394.131927 281.106445,382.698761 274.228333,372.337402 
	C262.333771,354.419098 245.947037,341.277191 227.194778,330.928497 
	C208.089020,320.384735 188.247711,311.708191 167.037323,306.339813 
	C165.267670,305.891876 163.568558,305.161652 161.795990,304.729401 
	C157.496292,303.680878 157.173981,301.165741 158.828979,297.587921 
	C160.873184,293.168640 160.292206,292.098328 155.443039,291.535889 
	C149.487534,290.845093 143.842972,290.137115 138.682755,286.133301 
	C135.215485,283.443024 129.991333,283.764954 125.580765,284.471130 
	C115.709641,286.051514 105.662392,284.616211 95.810081,286.919128 
	C82.419296,290.049133 68.912437,292.655121 55.739765,296.702148 
	C49.870464,298.505402 43.848812,299.807922 37.950035,301.522583 
	C35.788136,302.151001 33.984306,301.502045 32.202450,300.661926 
	C26.394657,297.923706 20.523315,287.437256 21.046543,280.977997 
	C22.487003,263.195312 31.519569,250.630997 46.979000,242.036621 
	C54.361916,237.932236 61.622921,233.616913 69.053589,229.569153 
	C80.551476,223.305847 92.997986,219.834290 105.247543,215.708664 
	C110.455261,213.954742 115.760750,212.562607 121.180435,211.675720 
	C126.408348,210.820221 129.969925,207.821198 132.171188,203.205856 
	C134.339691,198.659195 137.322418,194.647232 140.199188,190.588303 
	C145.343491,183.330002 152.419006,179.396927 161.458069,179.727722 
	C167.628754,179.953568 169.823593,182.736816 167.888077,188.452820 
	C164.734070,197.767334 166.255280,206.436737 170.284363,215.022339 
	C171.118515,216.799805 171.410538,218.824265 172.054947,220.699661 
	C173.488068,224.870270 175.414642,227.814880 180.820435,227.889999 
	C185.563721,227.955902 189.220306,231.652191 192.697617,234.727402 
	C195.846420,237.512115 198.586868,238.882324 202.715302,236.102600 
	C208.037766,232.518890 213.185455,235.956406 217.709946,238.267578 
	C234.560333,246.875000 251.194702,255.917145 266.806671,266.683105 
	C282.942139,277.810028 298.782684,289.340210 314.309570,301.308594 
	C318.618439,304.629974 323.281281,307.523010 327.944794,310.342804 
	C331.167694,312.291473 334.191711,311.179596 336.275574,308.318604 
	C338.015411,305.929962 337.646240,303.569977 334.192322,303.519348 
	C327.235199,303.417419 321.654541,299.976074 317.910156,294.977051 
	C311.837921,286.870178 303.434937,283.153259 294.632080,279.571869 
	C285.433197,275.829407 280.039307,268.266022 276.871399,259.451447 
	C270.381622,241.393845 283.213837,217.991379 294.083984,207.716965 
	C312.121735,190.667740 334.542694,181.646545 356.905945,172.874268 
	C370.407776,167.578003 385.013184,165.307816 399.577972,163.444077 
	C412.773834,161.755508 426.018066,160.905380 439.217407,159.485565 
	C444.596436,158.906952 449.742371,156.786224 454.413666,152.571152 
	C449.760986,149.843613 445.124146,151.336578 441.649261,152.699219 
	C433.562988,155.870178 428.537567,151.982056 423.761932,146.807770 
	C420.384827,143.148819 417.287811,139.200851 414.354736,135.171570 
	C411.700562,131.525391 412.349121,130.315811 416.742737,129.817001 
	C420.210297,129.423309 423.688416,129.122116 427.155701,128.726288 
	C428.984009,128.517548 431.286316,128.347321 431.332611,126.039177 
	C431.388214,123.265015 428.815216,123.199081 426.893921,123.293854 
	C415.247040,123.868385 403.885529,125.828659 392.717377,129.423248 
	C377.341736,134.372055 362.497192,140.492798 348.541656,148.553726 
	C338.191345,154.532181 328.748627,161.845078 320.215454,170.311920 
	C310.289398,180.160812 302.084320,191.329193 294.248840,202.839554 
	C290.876007,207.794235 289.987518,207.715134 286.359344,202.874512 
	C283.075256,198.492996 280.849030,193.416336 278.314117,188.622894 
	C273.123840,178.808304 266.070770,170.557678 258.716492,162.477264 
	C250.503128,153.452957 249.493393,145.021210 255.367920,133.861679 
	C262.707184,119.919647 273.645264,109.009636 285.137787,98.629799 
	C296.095001,88.733437 307.864288,79.749466 320.900421,72.834442 
	C335.460358,65.111122 350.790741,59.519299 367.629028,58.608101 
	C380.275482,57.923744 392.846039,57.601562 405.486786,58.612804 
	C411.004028,59.054184 414.402863,61.169476 416.277985,66.443169 
	C422.347748,83.513649 429.347809,100.243248 439.724609,115.160706 
	C447.012482,125.637505 454.741974,135.896194 463.943054,144.884460 
	C466.619263,147.498795 469.391663,146.851028 472.143188,145.153732 
	C479.961914,140.330688 486.934479,134.439331 492.781250,127.392159 
	C495.869995,123.669228 499.669342,123.868614 503.106445,125.148918 
	C506.357697,126.359970 505.834381,129.861374 505.445312,133.015152 
	C504.749146,138.658752 500.756866,142.196518 497.315887,145.849625 
	C493.941589,149.431976 489.753052,152.337982 485.624969,155.096512 
	C480.582031,158.466339 480.283264,159.504013 484.208130,164.283340 
	C490.191956,171.569778 496.529388,178.605804 501.656891,186.535172 
	C509.996429,199.431686 516.407898,213.148621 518.332520,228.626938 
	C519.294678,236.364029 520.631714,244.062805 520.336609,251.907440 
	C520.266541,253.771210 520.477173,255.572662 522.203857,257.292786 
	C527.726379,255.464005 531.537415,251.675171 533.841553,246.269287 
	C534.425049,244.900452 534.624451,243.372513 535.139526,241.968765 
	C535.726685,240.368805 536.533875,238.896790 538.559692,238.796249 
	C540.576904,238.696152 541.718567,240.001480 542.271484,241.599670 
	C544.449829,247.895279 546.093506,254.060715 544.192993,261.015900 
	C540.701233,273.794128 534.659180,284.928467 525.648193,294.586365 
	C521.916321,298.586182 517.705261,301.742981 512.383484,302.971710 
	C509.554108,303.625000 507.641449,304.947296 506.064972,307.314636 
	C502.395752,312.824707 499.137878,318.622253 494.502594,323.473022 
	C493.093414,324.947662 491.386230,326.979828 492.304871,329.181885 
	C493.206085,331.342072 495.602905,331.660797 497.849274,331.891937 
	C505.262207,332.654694 512.408936,334.935181 520.036926,334.735229 
	C545.838257,334.058807 566.879211,324.334991 582.883484,303.725189 
	C588.778870,296.133270 594.346130,288.725586 594.793945,278.637939 
	C594.914124,275.931549 596.426147,274.252075 599.484009,273.724030 
	C605.106567,272.753204 607.884033,268.410645 606.519897,262.831390 
	C605.424377,258.350739 603.689819,254.028732 602.534546,249.559860 
	C599.941284,239.528870 602.603943,230.364471 608.211609,222.123184 
	C611.027100,217.985443 611.396973,215.164108 607.658142,211.328186 
	C600.478271,203.961838 593.034607,196.904556 585.444702,189.974396 
	C580.064819,185.062180 574.977661,179.830887 569.678223,174.828568 
	C562.818787,168.353714 555.789246,162.057083 548.996460,155.513977 
	C541.849365,148.629562 535.029236,141.402908 527.816162,134.590591 
	C521.511658,128.636353 516.017639,122.055153 511.868317,114.503593 
	C503.867096,99.941772 501.904327,84.867264 508.727905,69.146599 
	C513.727234,57.628696 522.045654,49.200134 533.218018,44.136745 
	C543.892517,39.299019 554.922974,39.074268 565.901917,44.575951 
	C574.577393,48.923317 582.314819,54.036377 586.832581,62.916416 
	C590.111145,69.360634 588.544189,75.279732 582.138733,81.675316 
	C578.634094,85.174522 573.294434,85.531013 567.292358,82.192345 
	C563.079773,79.849075 559.056274,77.187057 554.490601,75.515808 
	C548.746216,73.413124 541.904419,74.630226 538.404236,78.867859 
	C534.411377,83.701965 534.115723,89.313393 536.603088,94.836021 
	C540.838013,104.238701 548.121033,111.351212 555.234558,118.553070 
	C564.316711,127.747925 573.322021,137.019455 582.467712,146.150436 
	C591.336365,155.004852 600.342163,163.721939 609.285522,172.501526 
	C616.369629,179.455856 623.483276,186.380630 630.506531,193.395859 
	C632.014343,194.901947 633.642700,196.687271 635.532898,194.868271 
	C640.297485,190.283035 646.163269,190.463852 651.929810,190.786377 
	C656.535034,191.043930 661.168091,191.888611 665.647095,193.029358 
	C670.711914,194.319275 674.428772,197.683853 676.657410,202.431717 
	C678.000610,205.293320 680.330872,206.952347 683.136169,207.397385 
	C691.175354,208.672684 694.118103,214.267151 695.178162,221.278839 
	C695.582703,223.954926 696.295349,226.342010 698.417236,227.723419 
	C706.898621,233.244995 708.270752,241.400818 704.866882,249.638214 
	C700.549255,260.086914 705.202454,266.086700 712.190308,272.839600 
	C731.380371,291.384399 749.920471,310.599579 768.879395,329.386444 
	C781.812622,342.202240 795.081177,354.679108 808.063965,367.445679 
	C812.301331,371.612488 816.164246,376.167603 820.087891,380.642090 
	C821.624634,382.394501 821.424500,384.704926 821.309753,386.870880 
	C821.011169,392.506561 816.426636,395.070618 812.607605,397.606506 
	C809.015076,399.992035 805.347107,397.908264 802.206482,395.235504 
	C781.328735,377.467743 762.347961,357.698700 742.577820,338.764862 
	C726.715698,323.573761 711.097656,308.128143 695.293884,292.875763 
	C692.342285,290.027191 689.016541,287.567383 685.876892,284.912262 
	C683.580994,282.970703 681.603210,283.597504 679.841858,285.662354 
	C675.745605,290.464691 671.732483,295.334259 666.996765,299.554199 
	C665.100342,301.244080 665.181946,303.058807 667.468750,304.411224 
	C672.284607,307.259369 672.765869,309.635010 667.257874,315.127808 
	C664.082092,318.294800 660.556946,321.112549 657.173645,324.069946 
	C653.763062,327.051147 653.882019,328.523499 657.825256,330.681915 
	C658.840881,331.237885 660.002502,331.521729 661.041321,332.041931 
	C666.103210,334.576782 667.088501,339.255524 663.350159,343.449677 
	C658.055603,349.389648 652.852600,355.428192 647.278809,361.098633 
	C637.302795,371.247681 626.699707,380.697510 615.180664,389.119232 
	C597.232971,402.240997 577.714478,412.190277 556.671448,419.340637 
	C548.608826,422.080292 540.310364,423.695953 532.086243,425.667175 
	C524.911072,427.387024 518.377441,433.281586 517.482056,440.578857 
	C515.096313,460.023468 517.606750,478.114197 533.288208,492.087463 
	C539.060608,497.231049 545.053528,500.020538 553.261414,497.251648 
	C561.478455,494.479736 568.584961,490.176086 575.314758,485.000183 
	C577.621582,483.226013 579.974365,482.079224 582.563965,483.956024 
	C585.216003,485.878082 585.224609,488.559326 584.356873,491.581848 
	C582.736572,497.225830 579.147217,501.686005 575.174133,505.521484 
	C561.706177,518.523071 546.189331,528.182129 527.809021,532.828613 
	C522.145630,534.260315 520.673523,536.382446 522.798157,541.900879 
	C525.467957,548.834961 529.428467,555.260437 532.401978,562.092529 
	C535.500549,569.212097 539.343933,575.940125 541.704956,583.478271 
	C545.290710,594.926941 544.105042,606.012878 542.110718,617.424866 
	C540.452820,626.912048 537.388794,635.812683 532.664734,644.047546 
	C527.228760,653.523376 518.594604,659.994934 509.413116,665.413208 
	C481.412079,681.937622 457.912445,703.463867 437.642090,728.704102 
	C431.725586,736.071228 426.313019,743.781921 421.337128,751.820862 
	C418.272675,756.771667 414.127167,757.694885 408.885529,754.981750 
	C407.562164,754.296814 406.215729,753.559082 405.096619,752.594238 
	C401.075836,749.127502 397.052826,748.998474 392.977386,752.378296 
	C389.673401,755.118408 387.808807,754.282898 386.563782,750.286072 
	C384.067627,742.272827 383.827789,733.971985 383.069824,725.732178 
	C382.112701,715.327209 380.714935,704.954224 380.741089,693.982544 
M488.334106,189.083008 
	C484.806396,184.269699 481.508759,179.134491 474.354309,179.694168 
	C471.977478,179.880127 469.231689,181.426819 467.426514,178.752502 
	C465.584625,176.023712 467.263824,173.499512 468.933228,171.483536 
	C471.542633,168.332489 469.583740,166.714951 467.252655,165.120712 
	C465.151001,163.683411 463.153473,164.650024 461.116394,165.528580 
	C451.595337,169.634766 441.967834,173.061584 431.274994,172.497406 
	C427.365936,172.291138 423.366852,173.269302 419.445221,173.924698 
	C409.447205,175.595581 399.530273,177.993530 389.470795,179.002182 
	C370.974335,180.856781 353.846832,186.564056 337.588104,195.297852 
	C330.869873,198.906708 324.730957,203.405228 318.347382,207.524582 
	C306.446350,215.204391 298.122070,225.570831 292.346619,238.187698 
	C287.742493,248.245758 290.923767,257.315674 296.666687,265.846863 
	C297.411102,266.952759 298.628601,267.637573 300.138397,267.026978 
	C301.279297,265.332031 300.213928,263.784912 299.773560,262.258759 
	C295.738892,248.275558 300.244598,236.400726 309.148438,225.871552 
	C316.326477,217.383240 325.067993,210.599350 334.188141,204.253098 
	C347.012177,195.329468 361.059753,188.776138 375.874725,184.413895 
	C385.744995,181.507645 395.916962,183.502548 405.080536,188.830078 
	C407.197693,190.060959 408.192261,191.963104 407.736816,194.241364 
	C407.260681,196.622971 405.063080,196.274963 403.249023,196.355225 
	C391.641907,196.868683 388.622040,199.613220 387.375732,211.001816 
	C387.140533,213.151077 386.832001,215.180969 384.300140,215.383041 
	C381.978760,215.568298 379.947357,214.388977 379.027405,212.279312 
	C378.191315,210.361908 377.860626,208.321457 378.087921,206.007202 
	C378.591644,200.878479 381.169128,196.488068 383.248657,191.620285 
	C379.917236,191.038834 377.913177,192.363708 375.897583,193.406403 
	C366.450348,198.293655 357.425659,203.898560 348.447449,209.591263 
	C334.685730,218.317017 325.140167,230.123474 320.997498,246.088669 
	C320.054504,249.722748 320.795441,252.325912 324.326477,253.830246 
	C325.381775,254.279846 326.559662,254.435104 327.670288,254.762939 
	C330.006439,255.452515 332.001587,256.425415 332.275055,259.302460 
	C332.561859,262.320190 331.031647,263.987732 328.438354,264.974579 
	C326.571350,265.685089 324.662567,266.289124 322.811127,267.036591 
	C319.055756,268.552673 316.617035,272.990112 318.041229,276.667572 
	C321.740265,286.219116 328.509430,292.958679 339.990692,291.464508 
	C342.129028,291.186218 344.330170,291.104248 346.383667,290.516876 
	C351.482697,289.058411 353.407898,291.644012 354.244629,296.110657 
	C354.668762,298.374481 354.938782,300.790222 356.582550,302.594086 
	C362.845123,309.466583 368.776306,316.668579 376.767273,321.755493 
	C384.297882,326.549408 392.053406,330.905701 400.131958,334.697998 
	C408.962952,338.843506 418.261200,341.143707 427.983398,341.693634 
	C447.826019,342.816071 464.185059,334.500275 478.904083,322.320984 
	C483.348022,318.643799 488.065399,314.720734 489.343842,307.736664 
	C485.345703,307.513733 480.932617,305.901611 478.312378,307.408020 
	C472.976349,310.475647 467.126892,311.076447 461.714661,313.140808 
	C454.677856,315.824890 448.393036,320.306824 441.143555,323.026855 
	C427.040985,328.318085 413.394470,328.726654 399.425842,322.862885 
	C394.600922,320.837494 390.071686,318.358215 386.092224,315.186127 
	C376.808838,307.786224 368.471497,299.465118 364.794037,287.666321 
	C363.809479,284.507568 363.335815,281.007507 366.879181,279.295837 
	C370.039185,277.769379 371.807556,280.741577 373.936096,282.600861 
	C377.245758,285.491882 379.546356,289.605347 384.372345,290.728821 
	C395.880188,293.407806 401.847076,291.121887 409.277985,281.476379 
	C416.083435,272.642700 424.733154,266.073822 435.223938,262.111389 
	C441.981049,259.559235 446.886841,260.395691 448.073822,264.118988 
	C449.597778,268.899078 445.918671,272.908844 438.256470,273.929626 
	C434.903351,274.376343 432.301361,275.678680 429.769409,277.643036 
	C423.936188,282.168488 420.062347,288.450836 415.141693,293.791077 
	C410.888916,298.406464 406.867310,303.079163 399.714783,303.657806 
	C396.803162,303.893372 393.070709,303.178986 390.640137,305.829559 
	C390.964172,307.678589 392.233948,308.284363 393.310120,309.021301 
	C405.073669,317.076996 418.315887,317.284607 431.061127,313.713409 
	C442.090851,310.622955 451.897461,304.078094 459.311615,294.838867 
	C465.189636,287.513855 465.873993,288.384064 474.057068,291.949860 
	C479.030762,294.117157 484.015900,295.787201 489.393890,295.496094 
	C502.108948,294.807831 513.113403,290.237793 520.801270,279.715424 
	C523.448364,276.092468 528.096252,273.336884 527.706604,266.914551 
	C513.513000,271.479736 500.524078,267.572968 487.476227,263.337433 
	C480.439270,261.053101 473.332764,261.944733 466.437134,264.661163 
	C464.284882,265.509033 461.997620,266.183105 459.712311,266.488647 
	C455.082123,267.107544 452.621979,264.256744 453.965057,259.833893 
	C454.483337,258.127289 455.549561,256.534546 456.592896,255.049210 
	C460.690765,249.215225 460.626801,248.238739 455.758881,242.624496 
	C454.168091,240.789871 451.654663,238.671143 453.579529,236.200867 
	C455.478485,233.763885 458.503540,233.306335 461.784393,234.338852 
	C467.252899,236.059830 470.994934,239.645599 473.345490,244.596024 
	C474.847687,247.759811 477.095184,249.653397 480.274414,250.513077 
	C486.670593,252.242645 493.075348,253.966583 499.539978,255.408432 
	C504.157166,256.438232 506.461304,254.435654 506.600189,249.657822 
	C506.779785,243.477646 505.130005,237.466263 504.713074,231.356552 
	C503.650513,215.784851 497.946228,202.069733 488.334106,189.083008 
M460.770203,433.488831 
	C460.456329,420.811768 460.344818,407.948547 465.295868,396.147583 
	C470.934998,382.706482 472.727844,368.623444 474.448914,354.490051 
	C475.501587,345.845612 471.080200,343.058044 462.929169,346.295319 
	C460.148407,347.399750 457.378754,348.607483 454.499268,349.375122 
	C442.618866,352.542236 430.608612,352.456726 418.421509,351.266846 
	C407.310791,350.182098 397.041901,346.761322 387.054443,342.170898 
	C382.943817,340.281525 379.409241,337.187866 374.697571,335.665741 
	C374.448761,337.175842 374.256836,338.129486 374.138489,339.092163 
	C373.071045,347.776123 377.943329,354.855194 380.986176,362.235382 
	C388.959656,381.574463 398.402496,400.353760 398.646393,421.994446 
	C398.688629,425.742889 399.730621,429.810150 403.968964,431.465210 
	C407.839569,432.976746 410.770233,435.700806 413.440369,438.626953 
	C419.583588,445.359222 424.986908,452.438904 427.710907,461.539703 
	C429.191345,466.485596 429.744629,472.306366 433.993042,476.236450 
	C436.366669,474.860504 437.682312,473.298157 438.577148,471.195831 
	C440.736176,466.123199 443.918762,465.294189 447.525360,469.366364 
	C451.133362,473.440033 454.180786,478.045746 457.182190,482.610077 
	C459.674347,486.399994 461.457275,486.701447 464.265228,483.213654 
	C468.689575,477.718170 469.330444,468.615265 465.612976,462.598145 
	C464.375275,460.594757 463.160767,458.581512 462.791290,456.254974 
	C461.646332,449.044800 460.142883,441.859863 460.770203,433.488831 
M116.683640,227.316101 
	C100.810211,231.003937 85.202057,235.378281 70.609749,242.949875 
	C63.087906,246.852768 55.598263,250.757080 48.267155,255.028107 
	C38.548553,260.690063 32.259216,268.106415 32.386936,279.932556 
	C32.482807,288.809296 37.433830,292.321289 45.639156,289.232574 
	C60.714546,283.557800 76.078285,278.779999 91.767395,275.131561 
	C105.462288,271.946869 119.500961,270.935028 133.292068,273.019684 
	C145.204605,274.820404 152.390762,270.283875 157.430603,260.342255 
	C159.391785,256.473572 163.146774,253.811951 164.622070,249.618286 
	C167.255951,242.131104 165.257446,234.840240 162.094742,228.372818 
	C157.860977,219.715256 154.536926,211.105331 154.555786,201.364395 
	C154.559189,199.607620 154.158554,197.464325 151.984222,196.985626 
	C149.930725,196.533554 148.589020,198.000046 147.530426,199.577621 
	C141.160019,209.071304 138.642929,219.758789 138.509613,230.971405 
	C138.469086,234.380081 139.336624,237.871811 139.231705,241.369934 
	C139.141052,244.392105 139.340469,247.852325 135.202591,248.188522 
	C131.327072,248.503418 129.664352,245.470520 128.791412,242.346848 
	C127.949173,239.332962 127.826424,236.125992 127.149948,233.056198 
	C125.643898,226.222031 124.330452,225.465775 116.683640,227.316101 
M372.072937,70.363754 
	C366.711700,71.418732 361.039642,71.693375 356.049774,73.680748 
	C343.119446,78.830666 330.470764,84.692780 317.749664,90.360374 
	C313.127777,92.419548 312.763062,94.484207 316.187378,98.280350 
	C325.428772,108.525146 333.953918,119.332016 341.788788,130.685806 
	C346.889648,138.077621 347.334595,138.105957 355.681824,133.929123 
	C363.100403,130.216949 370.609161,126.748169 378.447418,123.895241 
	C384.655914,121.635521 391.191223,120.431938 397.346497,118.144005 
	C397.339142,115.148270 396.709412,112.738983 395.560394,110.535484 
	C389.416412,98.752869 383.210510,87.005478 378.013580,74.755424 
	C377.078705,72.551735 375.339539,70.953087 372.072937,70.363754 
M655.474976,270.910004 
	C658.503540,275.782227 661.129028,272.660095 663.222473,270.204529 
	C667.089294,265.668762 670.417664,260.671356 674.324036,256.173401 
	C675.735779,254.547821 677.052307,251.203644 680.160522,252.886490 
	C683.214661,254.540085 681.676819,257.633575 681.360718,260.134613 
	C681.226990,261.192413 680.371277,262.214844 679.687012,263.137054 
	C677.317200,266.331024 674.822266,269.433228 672.495483,272.657288 
	C671.631470,273.854492 670.814880,275.356415 672.011108,276.776489 
	C673.117737,278.090118 674.498413,277.217712 675.698853,276.769440 
	C689.419739,271.645752 698.464661,255.476669 695.502930,241.280029 
	C695.240845,240.024185 694.756104,238.454437 693.828430,237.756714 
	C688.080444,233.433212 685.815552,227.364624 684.660706,220.629074 
	C684.274658,218.377136 683.314575,216.270065 680.742554,216.081467 
	C675.050354,215.664062 671.317078,212.586029 668.535400,207.894531 
	C667.606140,206.327240 666.489319,204.847488 665.300232,203.463409 
	C663.475464,201.339401 660.992859,200.802170 658.478271,201.685516 
	C655.358337,202.781494 656.794678,205.506073 657.362854,207.248199 
	C659.225769,212.959579 657.765686,217.948563 655.232056,223.059250 
	C652.411255,228.749329 648.491760,233.700729 645.217590,239.078094 
	C641.517822,245.154434 638.870605,251.533691 639.474365,258.808075 
	C639.637634,260.775604 640.277832,262.911621 642.569946,263.513794 
	C645.066162,264.169586 645.964417,262.210968 647.063660,260.470184 
	C650.260498,255.407745 653.768860,250.590134 658.508606,246.796158 
	C660.260437,245.393875 662.109985,243.742798 664.159973,245.737732 
	C665.922180,247.452591 664.022461,249.043488 663.160339,250.569778 
	C659.666321,256.754944 658.223450,263.751984 655.474976,270.910004 
M630.122131,247.631393 
	C629.153564,246.123138 627.512268,245.655945 626.017212,244.943741 
	C624.205750,244.080765 622.326416,243.318619 622.706482,240.645569 
	C623.036926,238.320877 624.361084,237.169525 626.500427,236.595535 
	C628.264099,236.122330 630.017822,235.580826 631.725891,234.936661 
	C646.811584,229.247055 648.105225,221.472961 646.340576,207.408173 
	C646.018372,204.840073 645.193176,201.681244 641.880432,201.583435 
	C638.899475,201.495422 638.626282,204.556595 638.064270,206.692551 
	C635.987122,214.586243 631.219849,219.331879 622.964539,220.396927 
	C618.754028,220.940170 615.861084,223.814529 614.387329,227.311111 
	C609.630554,238.596466 608.441467,249.680359 616.037292,260.717163 
	C620.668762,267.446716 625.627563,273.823730 631.440979,279.437195 
	C637.886353,285.660950 644.862305,291.263092 653.758850,293.969330 
	C658.068054,295.280182 660.956482,293.350708 662.333435,290.124512 
	C664.020874,286.170929 660.417847,285.102142 657.427063,284.370361 
	C654.729309,283.710266 652.522522,282.338623 650.712097,280.305481 
	C649.243530,278.656250 647.563477,277.325012 645.475037,276.604126 
	C635.616455,273.200989 631.821533,267.922668 631.682861,257.559814 
	C631.641113,254.439743 632.300476,251.202866 630.122131,247.631393 
M352.679657,415.870148 
	C339.554077,407.900879 326.985382,410.247253 314.872650,418.141998 
	C303.168335,425.770508 294.426178,436.508026 285.545563,447.023224 
	C283.115173,449.900970 281.407318,453.425995 279.613800,456.785278 
	C278.943359,458.041046 278.660492,459.870453 280.276123,460.817535 
	C281.687469,461.644928 282.770844,460.545868 283.684753,459.529602 
	C285.572571,457.430328 287.530579,455.386444 289.306610,453.195648 
	C297.154358,443.515076 304.630920,433.464996 314.105896,425.285614 
	C320.919373,419.403778 328.814423,415.224060 338.172455,415.957275 
	C348.110229,416.735870 355.091187,423.139343 361.721741,429.780792 
	C364.089111,432.152100 366.457367,434.157623 371.104218,434.480957 
	C367.853577,424.952637 360.796448,420.385651 352.679657,415.870148 
M626.431274,307.082336 
	C631.164368,310.975922 635.481018,315.385376 640.901306,318.422394 
	C644.789062,320.600647 650.244263,319.369476 651.997070,315.377411 
	C653.749023,311.387207 650.061768,310.565613 647.716980,308.898224 
	C636.409668,300.857361 624.112549,293.978729 615.933228,282.206818 
	C614.387207,279.981781 612.411926,278.265625 609.674377,279.926239 
	C606.797424,281.671478 607.975891,283.986755 609.170837,286.413910 
	C613.153992,294.503662 620.324097,299.884369 626.431274,307.082336 
M175.881439,272.342468 
	C180.560379,265.137024 185.124725,257.853088 189.976532,250.765991 
	C191.829773,248.058960 191.162521,246.233337 189.089096,244.306366 
	C185.565994,241.032120 182.970093,241.337173 179.772018,245.785446 
	C177.355423,249.146744 175.266037,252.711166 172.683945,255.997726 
	C168.195770,261.710327 164.182648,267.800354 160.057266,273.791962 
	C158.049789,276.707581 156.778931,279.738098 160.503845,282.414764 
	C164.039658,284.955536 166.675827,283.473816 169.042877,280.532898 
	C171.122223,277.949493 173.288269,275.435852 175.881439,272.342468 
M265.411530,148.300629 
	C266.027924,149.653625 266.404541,151.195877 267.299225,152.329193 
	C273.567810,160.269913 279.656067,168.386795 286.441803,175.866928 
	C288.790039,178.455460 290.196106,183.052109 295.234467,183.088516 
	C296.184387,179.406799 294.321442,176.865753 292.731415,174.502228 
	C286.260895,164.884018 279.800964,155.253540 272.239532,146.417221 
	C268.661102,142.235413 267.715637,142.300507 265.411530,148.300629 
z"/>
<path fill="#000000" opacity="1.000000" stroke="none" 
	d="
M332.023834,165.011230 
	C335.953796,161.673676 339.608246,158.559616 343.249756,155.430527 
	C345.839844,153.204880 349.058411,153.018570 351.636383,154.485794 
	C355.516785,156.694290 357.758789,160.621933 358.026062,165.092194 
	C358.221344,168.358627 355.375702,170.059402 352.715820,170.939224 
	C341.694153,174.584946 331.650848,180.460571 320.879211,184.664658 
	C318.636353,185.540024 317.140869,188.010406 314.284363,187.955948 
	C312.123322,186.175613 313.400909,184.638718 314.523651,182.897339 
	C319.076447,175.835999 325.499512,170.625595 332.023834,165.011230 
z"/>
<path fill="#000000" opacity="1.000000" stroke="none" 
	d="
M332.876648,232.705170 
	C335.230896,231.444794 337.193604,230.136551 339.350739,229.390549 
	C344.663788,227.553162 347.733093,229.618210 347.785553,235.281265 
	C347.802734,237.135300 348.505829,238.033752 349.702789,238.910217 
	C353.204193,241.474197 352.128937,243.788162 349.428253,246.120453 
	C345.984894,249.094162 341.832214,250.798096 337.787384,252.683823 
	C335.653748,253.678543 333.540100,253.464859 331.813354,251.761993 
	C329.965149,249.939362 330.326385,247.910477 331.484192,245.849060 
	C331.884064,245.137131 332.121765,244.334152 332.413452,243.621841 
	C327.837311,238.060013 327.837311,238.060013 332.876648,232.705170 
z"/>
<path fill="#000000" opacity="1.000000" stroke="none" 
	d="
M416.169739,227.964905 
	C418.903839,233.121521 418.183075,237.564362 414.397308,240.684982 
	C411.170105,243.345139 406.082794,243.223969 403.027649,240.414169 
	C399.283417,236.970627 398.593231,232.115158 401.238922,227.830765 
	C404.324310,222.834305 411.888092,222.746887 416.169739,227.964905 
z"/>
<path fill="#000000" opacity="1.000000" stroke="none" 
	d="
M487.711365,204.927216 
	C491.443451,207.852219 492.671539,211.159363 490.543884,215.188690 
	C488.681396,218.715790 484.468506,220.264435 481.224823,218.789780 
	C477.253571,216.984375 474.884186,212.329315 476.282471,209.079620 
	C478.073639,204.916702 482.636108,203.120605 487.711365,204.927216 
z"/>
<path fill="#000000" opacity="1.000000" stroke="none" 
	d="
M409.933594,359.451477 
	C410.006378,360.188904 410.010345,360.522247 410.032837,360.854370 
	C410.216827,363.568329 407.658173,367.177490 410.459259,368.784882 
	C413.460876,370.507324 416.657715,367.489777 419.627014,366.296692 
	C422.043701,365.325653 424.139709,363.515350 426.310425,361.981720 
	C430.998169,358.669617 435.569122,359.500122 439.632355,362.823792 
	C443.013519,365.589539 446.908295,367.491180 450.369568,370.077484 
	C453.446625,372.376678 455.289154,371.563080 456.763428,368.032471 
	C458.621826,363.582001 459.308167,358.702545 461.907898,354.528870 
	C462.934174,352.881287 463.259552,350.484406 465.971802,350.968994 
	C468.919617,351.495605 470.238495,353.804016 470.183014,356.406799 
	C470.105621,360.037292 469.610504,363.702637 468.871368,367.265350 
	C467.652618,373.140015 465.168610,378.617645 462.793762,384.093079 
	C461.433746,387.228607 456.584717,387.678528 452.827667,384.686798 
	C448.489288,381.232147 443.376068,379.190582 438.798584,376.196991 
	C434.855377,373.618164 430.717133,373.653320 426.559662,376.059052 
	C419.099609,380.375885 411.553955,384.544861 404.100220,388.872284 
	C402.220673,389.963501 400.306091,391.703613 398.211517,390.694946 
	C395.830627,389.548370 396.927124,386.829407 396.850433,384.784668 
	C396.538361,376.461517 397.113159,368.184204 398.575378,359.980042 
	C399.134216,356.844482 398.528839,352.541199 403.072906,352.257385 
	C407.247498,351.996582 408.872620,355.490082 409.933594,359.451477 
z"/>
<path fill="#000000" opacity="1.000000" stroke="none" 
	d="
M45.575180,271.061768 
	C43.155170,271.495728 40.780384,272.250366 39.719112,269.504791 
	C38.762325,267.029572 40.444649,265.260620 42.136860,264.001099 
	C49.843777,258.264923 58.219826,253.526749 66.674721,249.064774 
	C71.423592,246.558624 75.626526,242.779785 81.406303,242.116333 
	C84.565453,241.753693 87.302284,241.857864 88.636856,244.837112 
	C90.171013,248.261932 87.358612,249.773804 84.943420,251.410278 
	C78.702339,255.639099 71.275322,257.332825 64.795784,261.097626 
	C58.658340,264.663635 52.193813,267.666748 45.575180,271.061768 
z"/>
<path fill="#000000" opacity="1.000000" stroke="none" 
	d="
M48.338593,274.268433 
	C52.754555,271.242493 57.257050,269.128632 61.669937,266.814880 
	C68.553017,263.205933 75.970406,260.911346 82.858154,257.419891 
	C86.660332,255.492538 88.873672,256.828339 90.502510,260.153229 
	C92.185524,263.588684 90.795341,266.048920 87.568451,267.402557 
	C82.511269,269.524017 77.424316,271.633942 72.204971,273.292450 
	C67.103851,274.913300 62.027664,276.497894 57.603432,279.576447 
	C55.557621,281.000000 53.396271,281.505127 51.006924,281.312622 
	C49.113171,281.160065 46.826733,281.960144 45.766335,279.503448 
	C44.702469,277.038727 46.730438,275.913910 48.338593,274.268433 
z"/>
</svg>